<svg version="1.1" id="Layer_1" xmlns="http://www.w3.org/2000/svg" xmlns:xlink="http://www.w3.org/1999/xlink" x="0px" y="0px"
	 width="100%" viewBox="0 0 1024 1024" enable-background="new 0 0 1024 1024" xml:space="preserve">
<path fill="#000000" opacity="1.000000" stroke="none" 
	d="
M347.955750,608.047363 
	C351.271027,611.752197 354.385681,615.151367 358.186981,617.875793 
	C360.023560,615.690552 359.715912,613.450684 359.598083,611.346436 
	C358.843262,597.863159 359.591827,584.383240 359.538666,570.906982 
	C359.425629,542.261230 358.630463,513.618408 358.203979,484.973083 
	C358.163910,482.278961 357.190918,478.379486 360.246246,477.398102 
	C363.546387,476.338135 364.670166,480.230103 365.951263,482.584351 
	C371.984680,493.671997 381.229370,502.302704 388.552826,512.410522 
	C410.249878,542.356689 431.473053,572.634216 452.678864,602.926575 
	C457.236572,609.437256 462.084320,615.744934 467.035767,622.468262 
	C470.523407,618.998047 471.157135,614.779602 472.424713,611.005493 
	C474.967743,603.434082 476.900757,595.652527 480.415344,588.429077 
	C481.906921,585.363403 481.529114,583.072693 478.899536,580.511414 
	C472.376373,574.157654 470.118530,565.334717 466.446686,557.351868 
	C465.190491,554.620911 467.230743,553.627991 469.322601,553.343872 
	C474.422363,552.651062 479.550537,551.843140 484.678711,551.755981 
	C493.489166,551.606262 502.314301,551.238220 511.115967,552.552368 
	C516.332458,553.331177 517.526245,554.831848 514.844666,559.508789 
	C511.955902,564.547241 509.694885,570.098572 505.506714,574.224487 
	C500.039825,579.610107 499.079926,585.043762 501.766113,592.490662 
	C504.805756,600.917358 507.699463,609.437378 510.662903,617.913330 
	C511.238647,619.560120 511.823181,621.436768 513.997375,622.118896 
	C547.171021,580.138245 573.967407,533.529541 607.560242,491.201111 
	C615.123474,499.259491 622.539429,505.237335 621.587219,517.153259 
	C620.476746,531.050781 620.742310,545.108887 620.521729,559.094421 
	C620.114624,584.909546 621.759277,610.723694 621.082520,636.551758 
	C620.992615,639.982849 621.070190,643.418335 621.070190,647.163208 
	C624.865967,646.762085 627.587585,644.471130 630.395996,642.562683 
	C644.561340,632.937012 656.516968,620.849670 667.759033,608.082153 
	C687.953613,585.147339 702.702515,559.024719 711.700317,529.822083 
	C716.302185,514.886475 720.257996,499.714905 720.836426,483.956665 
	C720.976746,480.134094 722.113770,478.501831 726.159790,477.931702 
	C733.660339,476.874908 740.396118,473.438934 746.917053,469.646545 
	C748.551208,468.696136 750.300476,466.773010 752.297607,468.289734 
	C753.931519,469.530609 753.071533,471.660309 752.954041,473.466888 
	C752.089905,486.754822 750.404785,499.885956 747.301697,512.888245 
	C738.887329,548.144897 724.924988,580.818787 703.147888,609.953064 
	C680.351685,640.450684 652.388062,664.904602 618.327393,682.195251 
	C610.756165,686.038635 603.315491,690.149109 595.661865,693.817688 
	C587.807007,697.582581 579.373413,699.588989 570.793823,700.951233 
	C568.604004,701.298889 566.687073,701.772156 565.496277,704.058594 
	C559.960876,714.686890 551.928528,723.478760 543.608765,731.838806 
	C517.766846,757.805786 489.543823,780.776367 457.200745,798.349792 
	C449.541077,802.511719 441.444794,805.513062 433.008240,807.598328 
	C431.095428,808.071167 429.043243,808.315613 427.084076,808.195251 
	C423.027618,807.945923 422.058655,805.961609 424.565308,802.721069 
	C431.183197,794.165833 438.598022,786.283997 445.143311,777.627441 
	C460.082977,757.868835 468.985107,735.412964 476.109161,712.036499 
	C477.422729,707.726257 474.394196,707.800171 471.771820,707.375427 
	C454.801208,704.626953 438.079407,700.709473 422.180786,694.183228 
	C376.757263,675.537170 339.397003,646.656067 310.233978,606.825684 
	C286.930756,574.998596 271.840668,539.995972 265.105621,501.286285 
	C260.792542,476.496826 261.028107,451.718536 264.375732,426.734558 
	C269.615326,387.630646 283.756989,352.207886 305.769775,319.700409 
	C312.897461,309.174561 321.364075,299.776672 330.007721,290.522186 
	C331.015961,289.442719 332.234406,288.477142 333.521851,287.755890 
	C337.812927,285.351868 340.347839,286.689697 340.270996,291.478821 
	C340.108032,301.633453 340.782135,311.812317 339.471252,321.939575 
	C339.254456,323.614502 339.045349,325.155853 337.672333,326.422180 
	C324.464386,338.603760 317.216736,354.563019 309.973114,370.489777 
	C300.102020,392.193573 294.505585,415.064575 291.667480,438.671722 
	C288.934906,461.401184 291.254578,483.787598 295.355408,506.193787 
	C302.538025,545.438477 320.912262,578.740967 347.955750,608.047363 
z"/>
<path fill="#000000" opacity="1.000000" stroke="none" 
	d="
M356.662201,372.864685 
	C361.117493,347.398102 356.272797,322.271790 357.542419,297.197357 
	C358.433502,279.597839 356.374115,261.870880 359.639984,244.365234 
	C360.247101,241.110916 361.060089,237.839676 362.257111,234.762634 
	C364.529053,228.922684 367.287781,227.674683 373.168060,229.754974 
	C394.776672,237.399536 414.329926,248.731094 431.410583,263.950531 
	C438.427582,270.202972 444.037933,272.313965 454.279877,269.345367 
	C481.532043,261.446350 509.415741,260.118774 536.462219,271.754547 
	C538.731201,272.730682 540.029602,272.160492 541.706726,270.639191 
	C560.714478,253.397690 581.256775,238.599518 605.710266,229.805038 
	C615.074829,226.437149 617.949280,227.652313 620.177185,237.412842 
	C621.979675,245.309616 621.707458,253.380966 621.462219,261.316132 
	C620.854187,280.990021 622.888611,300.623993 622.041321,320.266876 
	C621.538452,331.924683 621.398254,343.575836 621.245483,355.234161 
	C621.203918,358.405518 621.560059,361.495483 622.057678,364.644470 
	C626.275208,391.333221 626.047058,417.847351 615.998413,443.314087 
	C610.876343,456.295135 603.656738,468.288300 594.788391,479.292358 
	C586.912964,489.064331 578.693359,498.396973 568.573914,505.852509 
	C546.306152,522.258362 521.613098,532.856812 493.690186,532.687134 
	C467.666992,532.529053 443.019287,525.867615 420.652069,511.905029 
	C388.254303,491.680939 367.462982,462.904480 358.368347,426.003296 
	C354.111755,408.732300 354.915222,390.954285 356.662201,372.864685 
M400.367157,391.848907 
	C406.253021,392.931458 412.222839,393.646759 417.893829,395.690002 
	C422.420410,397.320923 424.338715,400.579010 423.133209,405.054962 
	C422.053497,409.063721 419.609985,411.357300 415.045807,410.508606 
	C412.766144,410.084717 410.429260,409.944641 408.112061,409.750183 
	C399.001465,408.985657 390.093781,406.657227 380.922699,406.307129 
	C377.424988,406.173615 376.199280,407.545807 376.365326,411.019012 
	C376.986694,424.014954 377.668274,424.686218 390.545776,423.537140 
	C391.539032,423.448517 392.518250,423.167328 393.511200,423.116119 
	C401.142273,422.722656 408.834412,421.646515 416.347961,423.752136 
	C421.720978,425.257935 423.231964,429.452332 420.546387,434.211426 
	C419.337524,436.353729 417.486908,437.769348 415.239532,438.549316 
	C408.276733,440.965851 402.120880,445.079620 395.380127,447.904510 
	C391.588135,449.493622 390.419769,451.341766 392.561188,454.944122 
	C393.492645,456.510986 394.288513,458.162445 395.277100,459.690674 
	C400.211700,467.319366 406.782196,473.496643 413.306702,479.685150 
	C439.480408,504.510864 471.204254,513.613220 506.176727,509.235779 
	C541.681519,504.791718 568.364563,485.460876 586.989624,454.900757 
	C589.252869,451.187195 588.212769,449.842285 584.809937,448.186676 
	C577.780090,444.766510 570.445007,441.959991 563.803101,437.734558 
	C559.729004,435.142700 558.127136,431.544556 559.539917,427.072205 
	C560.881165,422.826508 564.451416,421.492523 568.669678,421.681427 
	C577.147644,422.061066 585.640076,422.254852 594.097595,422.902985 
	C599.086548,423.285278 601.625488,422.021790 602.375671,416.522919 
	C603.718079,406.683350 602.542480,405.189728 592.897705,406.718811 
	C584.692078,408.019745 576.472778,409.249084 568.236755,410.337982 
	C564.046326,410.891998 560.544312,409.941711 559.695129,404.945099 
	C558.807739,399.723633 559.811890,398.305878 566.182007,396.353973 
	C576.695129,393.132568 587.444885,390.862885 598.224487,388.790466 
	C601.848511,388.093689 602.731018,386.647888 602.276184,383.009857 
	C599.772217,362.984253 592.289917,345.109863 579.529968,329.520477 
	C557.373596,302.450928 528.860107,287.162506 493.855713,285.474640 
	C467.435883,284.200745 443.787964,293.175476 422.451447,308.384125 
	C396.954071,326.558624 381.037903,350.778900 376.571198,382.099976 
	C375.775482,387.679718 376.755127,389.387177 382.188812,389.533295 
	C388.056763,389.691101 393.707153,391.174164 400.367157,391.848907 
M598.052124,294.190948 
	C598.052124,282.823242 598.052124,271.455566 598.052124,259.022980 
	C583.900146,266.408875 572.321777,274.479645 561.324829,284.554138 
	C575.400269,294.310059 587.962341,304.675507 598.615845,318.978882 
	C598.434143,310.030090 599.192017,302.573059 598.052124,294.190948 
M382.004669,296.500000 
	C382.004669,303.189056 382.004669,309.878113 382.004669,316.567169 
	C393.710175,304.593872 405.390961,293.876953 419.178101,284.303589 
	C408.167328,273.969727 395.664276,267.704681 382.169464,261.045441 
	C380.498230,273.379211 382.815033,284.466461 382.004669,296.500000 
z"/>
<path fill="#000000" opacity="1.000000" stroke="none" 
	d="
M420.052490,230.823868 
	C433.033417,224.834595 446.493927,221.785797 460.186890,219.809998 
	C477.000793,217.383896 493.936951,216.104431 510.928802,216.756683 
	C529.396606,217.465591 547.803528,218.905243 565.567993,224.649582 
	C566.835571,225.059464 568.157593,225.277740 569.196289,226.651611 
	C566.546570,229.951187 562.457153,231.255936 559.186707,233.672867 
	C551.956238,239.016266 544.668457,244.283585 537.502991,249.712509 
	C535.658691,251.109833 534.009399,252.242294 531.651489,251.136826 
	C523.354065,247.246826 514.331665,246.204636 505.444672,245.627258 
	C490.996948,244.688599 476.488373,244.901535 462.239288,248.204590 
	C459.814819,248.766586 457.085052,249.063828 455.130096,250.406296 
	C448.628845,254.870651 444.010101,252.866318 438.808289,247.729782 
	C433.881744,242.865005 427.683624,239.298630 422.129578,235.050339 
	C420.897278,234.107788 418.237946,233.731125 420.052490,230.823868 
z"/>
<path fill="#000000" opacity="1.000000" stroke="none" 
	d="
M705.284058,386.781006 
	C698.999695,382.819580 694.329895,376.344147 686.026978,377.256378 
	C684.558960,377.417694 684.080811,376.240540 683.848755,375.017151 
	C683.201904,371.607452 682.562317,368.196106 683.150513,363.829742 
	C690.181885,368.699982 694.974731,359.558746 702.206421,361.569153 
	C698.854248,365.738953 697.365967,369.927582 698.851501,374.818024 
	C699.940186,378.402069 701.622437,381.344604 705.755615,381.700012 
	C711.084351,382.158264 715.913391,380.611145 718.847900,376.068970 
	C721.147461,372.509491 719.708313,368.685364 717.399841,365.366608 
	C716.931274,364.692932 716.263245,364.154938 715.671448,363.570312 
	C710.382141,358.344788 710.470337,357.676483 717.459717,354.191162 
	C725.691223,350.086517 734.010925,347.854309 742.470947,353.676514 
	C744.123657,354.813934 746.033997,355.882965 745.741699,358.262909 
	C745.487671,360.330658 743.410950,360.382751 741.956116,361.030487 
	C735.493652,363.908051 733.755249,369.596436 737.325745,375.721832 
	C739.112732,378.787476 741.858093,380.917908 744.884338,383.787994 
	C738.031372,387.583221 735.280273,395.010254 729.016968,398.998352 
	C726.404541,400.661804 725.478394,403.177734 724.877502,406.070892 
	C724.086670,409.878326 722.477844,413.176300 717.694946,412.766327 
	C713.567261,412.412506 710.918518,409.218811 711.004333,404.363251 
	C711.117859,397.936249 708.686707,392.402191 705.284058,386.781006 
z"/>
<path fill="#000000" opacity="1.000000" stroke="none" 
	d="
M638.888977,265.881470 
	C638.874146,263.073059 638.826660,260.743256 638.860901,258.414673 
	C638.939819,253.047348 640.187744,252.001190 645.593201,253.223755 
	C653.466248,255.004395 659.934509,259.747620 667.926636,263.516876 
	C657.747009,267.578461 649.888489,273.932007 640.324158,277.470917 
	C639.142456,273.602692 638.796387,270.012634 638.888977,265.881470 
z"/>
<path fill="#000000" opacity="1.000000" stroke="none" 
	d="
M651.514832,374.624237 
	C643.347473,377.169922 641.928284,376.045258 640.735596,368.052246 
	C639.264465,358.192963 637.185974,348.415771 638.013672,338.357422 
	C638.430603,333.290802 638.882507,328.227051 639.916809,323.163666 
	C640.278564,329.759399 640.780762,336.351166 640.969055,342.951843 
	C641.244690,352.610504 644.313965,361.316803 657.161804,362.270569 
	C662.422974,362.661133 663.398743,365.970001 660.170593,370.230316 
	C658.078918,372.990753 654.804871,373.374420 651.514832,374.624237 
z"/>
<path fill="#000000" opacity="1.000000" stroke="none" 
	d="
M498.006958,419.360474 
	C495.861450,428.336029 499.797943,434.624634 506.266418,439.518921 
	C511.537628,443.507263 517.611389,442.477203 521.745544,437.272827 
	C524.437866,433.883545 526.915344,430.307007 526.841309,425.630890 
	C526.788330,422.286346 528.714233,421.451355 531.745544,421.760773 
	C540.825867,422.687653 543.985779,428.031158 540.046082,436.388489 
	C536.266113,444.407043 532.151062,452.077148 523.461548,456.216095 
	C513.673584,460.878357 501.660889,459.081390 494.161041,451.146332 
	C493.261353,450.194458 492.689087,448.933105 492.506470,448.651123 
	C489.799377,448.588593 489.113647,449.623810 488.295197,450.416718 
	C477.077484,461.284546 459.412872,461.209320 448.449921,450.046051 
	C443.135040,444.634033 438.689819,438.597198 438.699860,430.491699 
	C438.706573,425.082916 440.917145,422.870697 446.403412,421.885590 
	C451.334961,421.000122 452.675171,423.784760 453.705811,427.849304 
	C454.779816,432.085022 457.182678,435.684235 460.800293,438.431458 
	C467.111938,443.224487 473.839722,442.472534 478.728912,436.244293 
	C483.816071,429.763855 483.517883,420.961487 478.037323,414.836548 
	C473.690369,409.978485 469.542084,404.992615 468.061096,398.388916 
	C467.226898,394.669128 468.155975,392.003906 472.396790,391.694244 
	C483.511292,390.882751 494.623718,389.851868 505.759491,391.597015 
	C512.462158,392.647400 514.332886,396.891083 510.304565,402.528534 
	C506.339355,408.077576 502.236847,413.528503 498.006958,419.360474 
z"/>
<path fill="#000000" opacity="1.000000" stroke="none" 
	d="
M555.275024,349.510101 
	C564.471985,354.750610 569.357117,362.026611 568.275269,372.574799 
	C567.984314,375.411102 567.707764,378.395538 564.195801,379.212677 
	C560.756775,380.012787 558.134888,379.056610 556.292175,375.735840 
	C554.289856,372.127563 552.282654,368.305084 547.225891,368.185822 
	C541.358948,368.047455 538.098755,371.670319 535.726074,376.289978 
	C534.574707,378.531616 533.468140,380.211090 530.671631,380.315125 
	C525.629944,380.502686 523.850830,378.931824 523.621826,373.796021 
	C523.459229,370.149445 523.286438,366.589478 524.539917,362.974335 
	C529.515259,348.625336 540.884155,343.441132 555.275024,349.510101 
z"/>
<path fill="#000000" opacity="1.000000" stroke="none" 
	d="
M415.566895,356.762726 
	C425.949951,343.199493 445.387848,344.915924 453.556152,357.896301 
	C456.632355,362.784760 457.106171,368.149200 456.664215,373.699493 
	C456.467743,376.167023 455.675629,378.257507 452.867554,378.857727 
	C449.993286,379.472076 447.193604,379.629608 445.010010,377.208954 
	C444.130646,376.234131 443.448975,375.065491 442.765289,373.932037 
	C437.467987,365.149811 429.812531,365.208191 424.280945,374.096985 
	C423.157440,375.902435 422.421326,377.957977 419.805420,378.333069 
	C415.393188,378.965698 412.832977,377.277802 412.009094,372.812286 
	C410.957550,367.112976 412.544495,361.955811 415.566895,356.762726 
z"/>
</svg>